<?xml version="1.0" encoding="UTF-8"?>
<svg width="14px" height="18px" viewBox="0 0 14 18" version="1.1" xmlns="http://www.w3.org/2000/svg" xmlns:xlink="http://www.w3.org/1999/xlink">
    <!-- Generator: Sketch 52.2 (67145) - http://www.bohemiancoding.com/sketch -->
    <title>Shape</title>
    <desc>Created with Sketch.</desc>
    <g id="Page-1" stroke="none" stroke-width="1" fill="none" fill-rule="evenodd" opacity="0.6">
        <g id="方案一" transform="translate(-802.000000, -407.000000)" fill="#4C5A71">
            <g id="分组" transform="translate(782.000000, 396.000000)">
                <path d="M33.0641319,24.6142462 C32.7176032,25.4719047 32.2259656,26.2385994 31.6043797,26.8905066 C30.9849597,27.5489111 30.2572494,28.0687041 29.4450728,28.4347251 C28.6047407,28.8094092 27.7145951,29 26.8006257,29 C25.8844904,29 24.9943448,28.8094092 24.1540128,28.4325593 C23.3418361,28.0687041 22.6162917,27.5489111 21.9947058,26.8905066 C21.3687884,26.2299362 20.8771508,25.4632415 20.5349537,24.6142462 C20.1797618,23.7349296 20,22.7993021 20,21.8333534 L20,12.3969438 C20,11.6259175 20.5955962,11 21.3298039,11 L32.2671159,11 C33.0013235,11 33.5969197,11.6259175 33.5947539,12.3969438 L33.5947539,20.7244616 L33.5990855,21.1078089 L33.5990855,21.8333534 C33.5990855,22.7949705 33.4193238,23.730598 33.0641319,24.6142462 L33.0641319,24.6142462 Z M24.6868006,27.1698953 L24.6911322,27.1698953 L24.7171219,27.1807243 C25.3733606,27.4796053 26.0729154,27.6312116 26.7984599,27.6312116 C27.5196727,27.6312116 28.2213933,27.4796053 28.8819637,27.1850559 C29.5230418,26.897004 30.1034773,26.4811695 30.6081097,25.9527133 C31.114908,25.4177596 31.5112502,24.7961737 31.7906389,24.1052822 C32.0808567,23.3862351 32.2281314,22.623872 32.2281314,21.8333534 L32.2281314,21.239923 L21.3687884,21.239923 L21.3687884,21.239923 L21.3687884,21.8355192 C21.3687884,22.6173746 21.516063,23.3819035 21.8062808,24.1052822 C22.0878354,24.8026712 22.4863434,25.4220912 22.98881,25.9505475 C23.486945,26.4746721 24.0565516,26.8861749 24.6868006,27.1698953 L24.6868006,27.1698953 Z M32.232463,19.8711346 L32.232463,12.3969438 C32.232463,12.383949 32.2302972,12.3752858 32.2281314,12.3687884 L21.37312,12.3687884 C21.3709542,12.3752858 21.3687884,12.383949 21.3687884,12.3969438 L21.3687884,19.8711346 L32.232463,19.8711346 L32.232463,19.8711346 Z M26.166045,16.789195 L26.166045,14.9937432 C26.166045,14.6428829 26.4519312,14.3569968 26.8027915,14.3569968 C27.1536518,14.3569968 27.439538,14.6428829 27.439538,14.9937432 L27.439538,16.7935267 C27.7774034,17.0101071 27.9788232,17.376128 27.9788232,17.7811334 C27.9788232,18.4308747 27.450367,18.959331 26.8006257,18.959331 C26.1508844,18.959331 25.6224281,18.4308747 25.6224281,17.7811334 C25.6224281,17.3804596 25.8303453,17.0036097 26.166045,16.789195 L26.166045,16.789195 Z" id="Shape" transform="translate(26.799543, 20.000000) scale(1, -1) translate(-26.799543, -20.000000) "></path>
            </g>
        </g>
    </g>
</svg>