<?xml version="1.0" encoding="UTF-8"?>
<svg width="14px" height="18px" viewBox="0 0 14 18" version="1.1" xmlns="http://www.w3.org/2000/svg" xmlns:xlink="http://www.w3.org/1999/xlink">
    <!-- Generator: Sketch 52.2 (67145) - http://www.bohemiancoding.com/sketch -->
    <title>Shape</title>
    <desc>Created with Sketch.</desc>
    <g id="Page-1" stroke="none" stroke-width="1" fill="none" fill-rule="evenodd" opacity="0.6">
        <g id="方案一" transform="translate(-802.000000, -343.000000)" fill="#4C5A71">
            <path d="M814.90057,346.339895 C814.562353,347.139134 814.077173,347.857846 813.461134,348.473884 C812.845096,349.089923 812.126384,349.575103 811.327145,349.913321 C811.055363,350.028073 810.775528,350.124706 810.493681,350.203221 C811.290907,350.47299 812.021698,350.923946 812.63371,351.535958 C813.680573,352.582821 814.25836,353.975953 814.25836,355.455654 C814.25836,356.935354 813.682586,358.328487 812.63371,359.37535 C811.586847,360.422212 810.193714,361 808.714014,361 C807.234314,361 805.841181,360.424225 804.794318,359.37535 C803.747456,358.328487 803.169668,356.935354 803.169668,355.455654 C803.169668,353.975953 803.745442,352.582821 804.794318,351.535958 C805.40633,350.923946 806.137121,350.47299 806.934347,350.203221 C806.6525,350.124706 806.372665,350.030086 806.100884,349.913321 C805.301644,349.575103 804.582933,349.089923 803.966894,348.473884 C803.350856,347.857846 802.865675,347.139134 802.527458,346.339895 C802.177161,345.510457 802,344.632703 802,343.724751 C802,343.324125 802.324125,343 802.724751,343 C803.125377,343 803.449502,343.324125 803.449502,343.724751 C803.449502,345.131976 803.997092,346.454647 804.991612,347.449167 C805.986131,348.443686 807.308802,348.991276 808.716027,348.991276 C810.123252,348.991276 811.445923,348.443686 812.440443,347.449167 C813.434963,346.454647 813.982552,345.131976 813.982552,343.724751 C813.982552,343.324125 814.306677,343 814.707303,343 C815.10793,343 815.432055,343.324125 815.432055,343.724751 C815.428028,344.632703 815.250867,345.510457 814.90057,346.339895 L814.90057,346.339895 Z M804.617157,355.455654 C804.617157,357.714461 806.455206,359.550498 808.712001,359.550498 C810.968795,359.550498 812.806845,357.714461 812.806845,355.455654 C812.806845,353.196846 810.970809,351.36081 808.712001,351.36081 C806.453193,351.36081 804.617157,353.198859 804.617157,355.455654 L804.617157,355.455654 Z" id="Shape" transform="translate(808.716027, 352.000000) scale(1, -1) translate(-808.716027, -352.000000) "></path>
        </g>
    </g>
</svg>